<?xml version="1.0" standalone="no"?>
<!DOCTYPE svg PUBLIC "-//W3C//DTD SVG 20010904//EN"
 "http://www.w3.org/TR/2001/REC-SVG-20010904/DTD/svg10.dtd">
<svg version="1.0" xmlns="http://www.w3.org/2000/svg"
 width="512.000000pt" height="512.000000pt" viewBox="0 0 512.000000 512.000000"
 preserveAspectRatio="xMidYMid meet">
<metadata>
Created by potrace 1.11, written by Peter Selinger 2001-2013
</metadata>
<g transform="translate(0.000000,512.000000) scale(0.100000,-0.100000)"
fill="#000000" stroke="none">
<path d="M26 4973 l-27 -27 2 -521 c2 -353 7 -545 15 -594 22 -131 82 -252
178 -358 l46 -51 -29 -66 c-149 -324 -210 -606 -205 -945 1 -80 5 -166 8 -191
12 -91 19 -135 22 -155 3 -11 7 -35 10 -54 8 -45 61 -238 78 -281 106 -267
190 -421 328 -603 363 -477 916 -818 1533 -946 216 -45 330 -56 580 -56 234 0
339 10 544 51 770 156 1424 627 1757 1267 98 188 184 431 210 593 3 21 12 71
18 111 20 112 25 314 12 482 -3 52 -8 97 -10 100 -2 3 -7 29 -10 56 -4 28 -12
70 -17 95 -6 25 -12 54 -15 65 -15 81 -82 271 -135 384 l-42 92 40 42 c94 99
151 207 190 361 7 29 16 1094 9 1121 -9 35 -52 58 -92 50 -45 -8 -62 -36 -69
-115 -20 -227 -162 -411 -376 -488 -71 -25 -84 -26 -326 -30 l-253 -4 -66 37
c-279 156 -609 277 -869 318 -16 3 -46 7 -65 11 -135 22 -257 31 -450 31 -151
0 -296 -8 -360 -20 -14 -2 -56 -9 -93 -15 -297 -47 -611 -156 -880 -307 l-99
-55 -251 5 c-156 2 -267 9 -292 16 -131 40 -263 141 -329 250 -42 71 -74 168
-80 249 -6 69 -17 96 -46 112 -32 17 -66 11 -94 -17z"/>
</g>
</svg>
