<?xml version="1.0" standalone="no"?>
<!DOCTYPE svg PUBLIC "-//W3C//DTD SVG 20010904//EN"
 "http://www.w3.org/TR/2001/REC-SVG-20010904/DTD/svg10.dtd">
<svg version="1.0" xmlns="http://www.w3.org/2000/svg"
 width="500.000000pt" height="500.000000pt" viewBox="0 0 500.000000 500.000000"
 preserveAspectRatio="xMidYMid meet">
<metadata>
Created by potrace 1.11, written by Peter Selinger 2001-2013
</metadata>
<g transform="translate(0.000000,500.000000) scale(0.100000,-0.100000)"
fill="#000000" stroke="none">
<path d="M568 4550 c-132 -51 -210 -157 -214 -293 -5 -140 59 -245 185 -304
62 -29 155 -41 201 -24 28 9 32 8 41 -15 29 -78 31 -443 3 -577 -3 -15 -26
-58 -50 -95 -63 -94 -177 -328 -218 -448 -48 -140 -88 -322 -103 -469 -14
-131 -6 -444 13 -537 2 -13 7 -39 10 -58 22 -136 93 -351 168 -515 37 -78 37
-80 21 -115 -28 -62 -42 -133 -39 -202 9 -255 233 -455 488 -435 39 3 81 9 91
13 68 23 150 71 192 113 l50 49 47 -48 c51 -52 144 -103 220 -120 146 -33 317
19 422 128 l38 40 50 -50 c43 -41 132 -96 171 -105 5 -1 28 -7 50 -12 55 -14
191 -6 245 13 65 24 120 59 165 105 46 47 57 49 82 18 31 -40 110 -94 170
-117 67 -26 193 -35 263 -19 71 16 162 66 216 118 l50 49 48 -49 c51 -52 143
-102 216 -118 67 -15 196 -6 259 18 234 89 352 346 267 583 l-25 69 34 72 c39
82 87 203 104 262 28 95 50 184 60 240 6 33 13 70 16 83 18 96 28 432 14 522
-4 25 -10 68 -13 95 -33 254 -166 610 -309 826 -25 37 -47 82 -51 100 -27 149
-28 455 0 564 5 21 11 22 92 19 77 -2 94 1 147 25 75 35 130 89 164 160 37 80
37 193 0 271 -33 68 -87 123 -153 158 -44 22 -64 26 -141 26 -79 0 -97 -3
-142 -27 -209 -109 -247 -379 -74 -535 20 -17 44 -35 53 -38 13 -4 15 -10 8
-32 -5 -15 -12 -43 -15 -62 -10 -55 -14 -360 -6 -412 4 -27 5 -48 2 -48 -4 0
-25 24 -48 53 -41 50 -196 205 -258 257 -255 212 -589 374 -910 441 -33 7 -67
13 -75 14 -8 1 -31 5 -50 8 -149 26 -476 27 -605 3 -11 -2 -40 -7 -65 -11 -66
-11 -80 -14 -100 -20 -10 -3 -27 -8 -39 -10 -114 -22 -325 -101 -467 -175 -84
-44 -288 -171 -304 -190 -3 -3 -41 -35 -85 -72 -80 -65 -225 -212 -267 -269
-30 -40 -37 -37 -28 13 8 43 6 352 -2 398 -21 110 -21 106 7 124 45 30 91 82
116 133 19 40 24 64 24 138 0 104 -22 159 -89 228 -85 85 -230 119 -338 77z
m1495 -2942 c-23 -104 -65 -183 -132 -246 -35 -34 -127 -90 -158 -97 -10 -3
-36 -9 -58 -14 -101 -25 -245 4 -339 68 -87 60 -168 181 -183 275 l-6 36 441
0 440 0 -5 -22z m1743 -15 c-4 -21 -22 -70 -42 -110 -109 -225 -398 -309 -619
-179 -56 34 -128 108 -160 168 -29 53 -57 143 -47 152 3 3 201 6 440 6 l434 0
-6 -37z"/>
</g>
</svg>
